<svg version="1.1" id="Layer_1" xmlns="http://www.w3.org/2000/svg" xmlns:xlink="http://www.w3.org/1999/xlink" x="0px" y="0px"
	 width="100%" viewBox="0 0 1182 332" enable-background="new 0 0 1182 332" xml:space="preserve">
<path fill="#FEFEFE" opacity="1.000000" stroke="none" 
	d="
M809.000000,333.000000 
	C539.333313,333.000000 270.166656,333.000000 1.000000,333.000000 
	C1.000000,222.333328 1.000000,111.666664 1.000000,1.000000 
	C395.000000,1.000000 789.000000,1.000000 1183.000000,1.000000 
	C1183.000000,111.666664 1183.000000,222.333328 1183.000000,333.000000 
	C1058.500000,333.000000 934.000000,333.000000 809.000000,333.000000 
M425.100616,199.955139 
	C425.148376,203.945801 425.196167,207.936447 425.051392,212.453781 
	C425.046112,212.640610 425.040802,212.827438 424.334717,213.457245 
	C421.285736,213.457245 418.236786,213.457245 415.124451,213.457245 
	C415.124451,219.996811 415.124451,225.853409 415.124451,231.592697 
	C418.631012,232.080841 421.915833,232.538101 425.108978,233.929214 
	C425.108978,247.836014 425.108978,261.742828 425.108978,275.675293 
	C432.731964,275.675293 439.774261,275.675293 446.858765,275.675293 
	C446.858765,261.228424 446.858765,247.112473 447.390839,232.310883 
	C450.818542,232.310883 454.246246,232.310883 457.705383,232.310883 
	C457.705383,225.700180 457.705383,219.800827 457.705383,214.489532 
	C453.797882,213.600723 450.283203,212.801254 446.970978,211.088120 
	C446.970978,206.714645 446.970978,202.341171 446.970978,198.032578 
	C439.516022,198.032578 432.763153,198.032578 425.396576,197.956848 
	C425.324982,198.317245 425.253357,198.677628 425.100616,199.955139 
M115.290054,237.967514 
	C105.402832,224.393967 95.544983,210.798798 85.582664,197.280579 
	C84.593246,195.938004 83.013733,194.198257 81.627655,194.122940 
	C75.361053,193.782379 69.065514,193.974075 62.618820,193.974075 
	C62.618820,221.466537 62.618820,248.526505 62.618820,275.673096 
	C70.090622,275.673096 77.298531,275.673096 84.426102,275.673096 
	C84.426102,261.049652 84.426102,246.758835 84.426102,231.682007 
	C94.772247,245.793396 104.657166,259.319366 114.617943,272.789185 
	C115.542641,274.039673 116.908928,275.793549 118.137993,275.850494 
	C124.704674,276.154785 131.292908,275.993988 137.645111,275.993988 
	C137.645111,248.205109 137.645111,221.154724 137.645111,194.317719 
	C130.054947,194.317719 122.819466,194.317719 116.416817,194.317719 
	C116.416817,208.946167 116.416817,223.224533 116.197083,237.759033 
	C116.197083,237.759033 115.982407,238.019424 115.290054,237.967514 
M683.697815,135.110931 
	C683.729187,124.115944 683.771240,113.120964 683.788208,102.125954 
	C683.800110,94.355438 686.845703,90.185837 692.569763,90.168282 
	C697.802246,90.152222 700.360474,93.957726 700.363037,101.780487 
	C700.366699,113.066582 700.364014,124.352676 700.364014,135.674652 
	C707.922424,135.674652 714.978882,135.674652 722.125977,135.674652 
	C722.125977,121.520363 722.328186,107.692268 722.069214,93.872818 
	C721.808899,79.982903 712.679688,71.805031 698.971741,72.230301 
	C690.912231,72.480331 684.408020,75.805679 678.733948,81.619568 
	C675.086731,74.714851 669.053589,71.855515 662.381042,72.368111 
	C656.130920,72.848251 650.038635,75.382736 643.946289,76.994774 
	C643.894470,76.670624 643.667297,75.249557 643.445984,73.864922 
	C636.554260,73.864922 629.938660,73.864922 623.423340,73.864922 
	C623.423340,94.682533 623.423340,115.251724 623.423340,135.774918 
	C630.700562,135.774918 637.639648,135.774918 644.992676,135.774918 
	C644.992676,123.764458 644.964172,111.980011 645.004761,100.195793 
	C645.024963,94.321236 648.649475,90.259132 653.784607,90.183853 
	C658.474731,90.115097 661.727966,93.706390 661.843506,99.678810 
	C662.017517,108.672333 661.902649,117.671455 661.909180,126.668198 
	C661.911438,129.746887 661.909546,132.825592 661.909546,135.820999 
	C669.443970,135.820999 676.260864,135.820999 683.697815,135.110931 
M1047.132812,221.526093 
	C1043.828369,215.563690 1038.221924,213.219971 1031.945801,212.425720 
	C1022.357971,211.212357 1014.095337,214.239563 1007.362610,221.682739 
	C1003.629517,214.959137 997.815613,212.529434 991.003418,212.161499 
	C984.193420,211.793640 978.162109,214.167542 972.582581,218.761551 
	C972.269104,216.666962 972.056091,215.243576 971.866394,213.976410 
	C965.086304,213.976410 958.529480,213.976410 951.943115,213.976410 
	C951.943115,234.747726 951.943115,255.166733 951.943115,275.793915 
	C959.049377,275.793915 965.962463,275.793915 973.366028,275.793915 
	C973.366028,273.649933 973.366272,271.703247 973.365967,269.756561 
	C973.364441,259.599304 973.230408,249.439636 973.415710,239.285782 
	C973.511780,234.021011 977.338684,230.331909 982.166016,230.178848 
	C986.607422,230.038025 989.780212,233.121338 990.090759,238.575897 
	C990.430847,244.549744 990.325317,250.550476 990.358948,256.539825 
	C990.395020,262.963989 990.367126,269.388550 990.367126,275.745972 
	C998.000854,275.745972 1004.931030,275.745972 1012.132080,275.745972 
	C1012.132080,264.031189 1012.124817,252.571762 1012.134766,241.112335 
	C1012.140625,234.424316 1015.567749,230.228531 1021.033875,230.174103 
	C1026.127075,230.123383 1028.901489,233.810303 1028.908447,240.698486 
	C1028.920288,252.315170 1028.911743,263.931885 1028.911743,275.728729 
	C1036.302734,275.728729 1043.350464,275.728729 1050.608032,275.728729 
	C1050.608032,261.343750 1050.814453,247.226227 1050.467407,233.122330 
	C1050.376953,229.446976 1048.560791,225.814087 1047.132812,221.526093 
M504.799347,135.533081 
	C526.403687,129.563217 535.532166,111.572586 530.967346,88.216255 
	C518.073303,88.216255 505.158417,88.216255 492.127350,88.216255 
	C492.127350,93.858459 492.127350,99.266281 492.127350,105.007149 
	C498.097107,105.007149 503.862762,105.007149 509.670654,105.007149 
	C508.684753,111.634598 503.704498,116.061508 496.671814,116.853004 
	C488.004059,117.828514 478.870758,112.173576 475.227417,103.575600 
	C471.270477,94.237473 473.898468,82.778206 481.375610,76.766251 
	C490.282928,69.604340 499.787964,70.536125 513.447021,80.109947 
	C517.965637,75.248741 522.521118,70.347900 527.053833,65.471527 
	C512.851868,50.376453 486.592010,47.432232 468.865387,58.565739 
	C451.612305,69.401855 447.204803,86.437355 450.493042,104.456474 
	C453.575439,121.347549 464.058807,132.175049 480.809326,135.546722 
	C488.266968,137.047852 496.270966,135.834473 504.799347,135.533081 
M196.409378,79.918106 
	C185.812164,92.225533 185.077789,106.199142 190.545624,120.588142 
	C195.038284,132.410934 205.392715,138.455460 217.875595,136.837662 
	C223.206528,136.146759 228.279495,133.465546 233.613556,131.639465 
	C233.743546,132.744095 233.926010,134.294891 234.092499,135.709869 
	C240.903412,135.709869 247.321503,135.709869 253.646637,135.709869 
	C253.646637,106.875282 253.646637,78.336288 253.646637,49.693520 
	C246.237427,49.693520 239.177963,49.693520 231.654327,49.693520 
	C231.654327,59.176624 231.654327,68.352615 231.654327,77.790375 
	C218.072464,69.692917 207.159164,70.297218 196.409378,79.918106 
M1099.941284,132.902802 
	C1100.794067,133.935547 1101.606567,135.820175 1102.505981,135.862549 
	C1108.268555,136.134003 1114.050049,136.001038 1119.912842,136.001038 
	C1119.912842,106.981819 1119.912842,78.438934 1119.912842,49.640495 
	C1112.626099,49.640495 1105.558350,49.640495 1098.056274,49.640495 
	C1098.056274,59.036366 1098.056274,68.227051 1098.056274,78.055092 
	C1096.679077,77.165047 1095.881592,76.625862 1095.061646,76.123184 
	C1082.472778,68.405342 1066.856934,72.085709 1058.957153,84.634872 
	C1054.224121,92.153481 1053.215210,100.462746 1053.920166,109.085777 
	C1056.037476,134.984039 1079.736816,144.052200 1097.455933,132.016418 
	C1098.003784,131.644333 1099.070557,132.036163 1099.941284,132.902802 
M709.581848,194.915634 
	C692.362549,201.516647 681.755371,217.192795 682.416260,235.063538 
	C683.150024,254.906586 693.799133,269.564728 711.365051,274.910583 
	C728.023560,279.980316 749.696716,275.394897 757.180054,265.076294 
	C753.637024,259.485413 750.054626,253.832535 746.457947,248.156998 
	C733.139587,258.036377 720.143127,258.226288 711.524170,248.912643 
	C704.696228,241.534378 704.730591,227.591522 711.571777,219.950760 
	C715.329773,215.753616 720.172180,213.656921 725.624634,213.256805 
	C732.821350,212.728683 738.733459,215.811783 743.784668,221.166199 
	C748.635986,215.491058 753.233826,210.112320 757.991943,204.546143 
	C743.729431,191.453018 727.851624,189.135773 709.581848,194.915634 
M935.500854,73.751663 
	C921.113770,69.456932 908.294128,74.645111 902.450867,87.984550 
	C897.171509,100.036583 897.439331,112.333450 904.046814,123.970009 
	C910.115723,134.657990 921.795898,139.344437 933.502197,135.858887 
	C936.881592,134.852707 939.946655,132.790924 943.494385,131.046631 
	C943.673950,132.717438 943.838501,134.247940 943.992371,135.679413 
	C951.352478,135.679413 958.424866,135.679413 965.594299,135.679413 
	C965.594299,114.937607 965.594299,94.522171 965.594299,73.937485 
	C958.359253,73.937485 951.325989,73.937485 944.194153,73.937485 
	C944.107300,75.686234 944.035767,77.125885 943.955994,78.731834 
	C941.245667,77.042297 938.755859,75.490280 935.500854,73.751663 
M174.113251,276.706665 
	C182.032852,278.071564 188.918121,275.243958 195.497879,270.630768 
	C195.717514,272.857330 195.859818,274.300018 195.999008,275.711182 
	C203.283829,275.711182 210.360962,275.711182 217.612656,275.711182 
	C217.612656,254.997208 217.612656,234.577118 217.612656,213.890411 
	C210.435135,213.890411 203.388336,213.890411 196.277222,213.890411 
	C196.122040,215.650421 195.989243,217.156555 195.827057,218.996124 
	C181.827057,206.179199 157.824600,211.770096 152.636093,233.220352 
	C151.518326,237.841370 151.055893,242.759735 151.183182,247.517273 
	C151.578033,262.274139 160.341202,273.465698 174.113251,276.706665 
M338.352661,248.029724 
	C339.187866,251.740997 339.596741,255.613617 340.929932,259.136444 
	C347.781799,277.242096 368.580048,282.825592 382.651031,269.974884 
	C382.833832,272.133972 382.990265,273.981537 383.135559,275.697693 
	C390.615784,275.697693 397.689270,275.697693 404.609192,275.697693 
	C404.609192,254.873825 404.609192,234.357498 404.609192,213.989548 
	C397.316010,213.989548 390.411346,213.989548 383.541290,213.989548 
	C383.391052,215.775269 383.271301,217.198273 383.137665,218.786652 
	C366.358582,205.151550 345.268555,213.929703 340.189911,231.902634 
	C338.815125,236.767960 338.932648,242.054947 338.352661,248.029724 
M606.992371,119.498016 
	C606.992371,104.280128 606.992371,89.062248 606.992371,73.973907 
	C599.349609,73.973907 592.445129,73.973907 585.532715,73.973907 
	C585.395142,75.749664 585.284180,77.182648 585.161804,78.763107 
	C568.112549,65.235603 549.238525,74.492599 543.814697,87.673080 
	C538.591736,100.365425 538.529297,112.984612 545.903564,124.883804 
	C554.454224,138.681351 572.422241,141.099136 584.650391,129.986664 
	C584.833496,132.137817 584.990662,133.984589 585.136597,135.699615 
	C592.617859,135.699615 599.688416,135.699615 606.992371,135.699615 
	C606.992371,130.430832 606.992371,125.463631 606.992371,119.498016 
M1077.432251,214.739746 
	C1073.609375,218.298035 1068.689209,221.217728 1066.175293,225.537750 
	C1059.388428,237.200180 1059.549561,249.702591 1065.148438,261.876099 
	C1068.910645,270.056427 1075.502930,275.275757 1084.523193,276.664612 
	C1092.307983,277.863159 1099.402832,275.980377 1105.578979,269.845764 
	C1105.791626,272.084778 1105.957031,273.824463 1106.133179,275.679260 
	C1113.355225,275.679260 1120.575562,275.679260 1127.759033,275.679260 
	C1127.759033,254.939972 1127.759033,234.525543 1127.759033,213.870255 
	C1120.622314,213.870255 1113.718140,213.870255 1106.570435,213.870255 
	C1106.420898,215.569061 1106.285767,217.103531 1106.107544,219.126114 
	C1097.470093,211.323166 1088.103149,210.618484 1077.432251,214.739746 
M126.623367,100.102280 
	C132.711411,84.869896 138.799469,69.637505 144.997498,54.129936 
	C137.139633,54.129936 129.693634,54.129936 121.945251,54.129936 
	C115.836670,70.898567 109.715546,87.701607 103.412148,105.005020 
	C97.023079,87.779938 90.804100,71.013435 84.611923,54.319206 
	C76.722397,54.319206 69.036568,54.319206 60.974533,54.319206 
	C66.526741,68.309540 71.891205,81.877831 77.295570,95.430214 
	C82.690300,108.958427 88.125000,122.470711 93.547569,136.003433 
	C98.793083,136.003433 103.626816,135.831772 108.440308,136.069702 
	C111.200882,136.206146 112.540565,135.364075 113.554466,132.705338 
	C117.635056,122.004890 121.988518,111.408493 126.623367,100.102280 
M333.438904,100.107681 
	C331.377289,119.782921 343.659088,134.923264 363.338043,136.965652 
	C379.090637,138.600555 393.821503,130.890457 399.256622,118.165947 
	C408.799042,95.825508 393.875580,72.922638 369.253143,72.119980 
	C350.524963,71.509460 336.375793,82.280960 333.438904,100.107681 
M828.992615,247.533554 
	C829.010742,244.701202 828.839111,241.850098 829.116699,239.043411 
	C829.288879,237.302078 829.644104,234.736481 830.787231,234.097610 
	C833.756470,232.438248 837.259644,230.593414 840.451294,230.755951 
	C844.632385,230.968887 846.113159,234.748108 846.101929,238.855179 
	C846.068481,251.127625 846.089844,263.400208 846.089844,275.748474 
	C853.697754,275.748474 860.775391,275.748474 867.940857,275.748474 
	C867.940857,261.196320 868.395325,246.879990 867.812134,232.606064 
	C867.236694,218.520325 857.112854,210.331833 843.301880,212.547653 
	C838.123108,213.378540 833.252319,216.128448 828.111328,218.051987 
	C827.949768,217.114258 827.661926,215.443726 827.406006,213.957977 
	C820.485168,213.957977 813.918274,213.957977 807.316528,213.957977 
	C807.316528,234.716156 807.316528,255.141968 807.316528,275.718201 
	C814.602356,275.718201 821.658752,275.718201 828.992615,275.718201 
	C828.992615,266.464752 828.992615,257.493988 828.992615,247.533554 
M1001.114990,73.623413 
	C994.838745,73.623413 988.562561,73.623413 981.912170,73.623413 
	C981.912170,84.306557 981.912170,94.606323 981.912170,104.906082 
	C981.912170,115.174179 981.912170,125.442276 981.912170,135.631104 
	C989.484314,135.631104 996.530090,135.631104 1003.788635,135.631104 
	C1003.788635,132.112366 1003.780334,128.963272 1003.790283,125.814262 
	C1003.818665,116.818504 1003.705200,107.818810 1003.943787,98.828522 
	C1004.085327,93.497169 1008.322754,89.898148 1013.459839,90.167503 
	C1018.069031,90.409180 1020.812500,93.608727 1020.897095,99.034019 
	C1020.972473,103.865028 1020.912231,108.698151 1020.912170,113.530334 
	C1020.911987,120.954193 1020.912170,128.378052 1020.912170,135.700836 
	C1028.601074,135.700836 1035.678101,135.700836 1042.991821,135.700836 
	C1042.991821,127.926453 1043.110840,120.449104 1042.959229,112.977226 
	C1042.797485,105.002220 1043.027100,96.941315 1041.920410,89.082001 
	C1040.331177,77.796600 1032.307739,71.451233 1020.897400,72.569580 
	C1014.754395,73.171654 1008.807068,75.769287 1002.710022,77.483810 
	C1002.642944,77.183357 1002.287109,75.588676 1001.114990,73.623413 
M285.681946,135.024612 
	C299.623871,139.160248 312.400391,137.215256 324.130219,128.030579 
	C320.518646,122.986351 317.185760,118.331314 313.889618,113.727638 
	C302.210632,120.750221 289.832855,118.611099 286.754913,108.970863 
	C299.948456,108.970863 312.985229,108.970863 326.132629,108.970863 
	C326.132629,106.297630 326.161285,104.141579 326.127869,101.986488 
	C325.945496,90.226738 321.227234,80.738121 310.579010,75.525711 
	C299.213470,69.962158 287.735077,70.878716 277.110931,78.160667 
	C259.970428,89.909058 258.598053,125.358315 285.681946,135.024612 
M940.132751,244.495453 
	C940.119385,228.920853 933.335632,218.080551 920.997986,213.918472 
	C898.322510,206.268982 877.792542,222.148041 878.767090,246.582291 
	C879.300049,259.946014 886.659180,270.269073 898.838501,274.737518 
	C912.330200,279.687439 929.557312,276.551605 937.812805,267.585663 
	C934.557861,263.036987 931.292419,258.473785 928.059021,253.955246 
	C915.177246,260.594879 903.615479,258.580688 900.859131,249.142471 
	C912.726990,249.142471 924.508728,249.047028 936.286804,249.209793 
	C939.218384,249.250290 940.772522,248.697464 940.132751,244.495453 
M598.519043,212.885498 
	C594.302734,214.695511 589.553040,215.784958 585.963501,218.441803 
	C571.399719,229.221497 569.346802,253.068558 581.424805,266.482971 
	C593.653870,280.065155 620.041992,280.723633 632.847290,267.638214 
	C629.528992,262.998779 626.195312,258.337830 622.895813,253.724655 
	C611.250916,260.731720 599.036682,258.649597 595.716125,249.006409 
	C608.917603,249.006409 621.950745,249.006409 634.910767,249.006409 
	C637.850403,222.083847 618.509644,209.171814 598.519043,212.885498 
M789.965820,124.580917 
	C787.358765,120.991585 784.751648,117.402245 782.173462,113.852715 
	C770.442078,120.695747 760.775879,119.159195 753.882568,109.140266 
	C760.803101,109.140266 767.370056,109.140266 773.936951,109.140266 
	C780.709473,109.140266 787.481934,109.140266 794.308655,109.140266 
	C794.308655,105.707909 794.474487,102.873550 794.279541,100.064217 
	C793.495178,88.759247 788.528931,79.742462 778.042175,75.110016 
	C766.527771,70.023613 754.874817,70.747910 744.739380,78.723228 
	C730.379700,90.022575 728.777588,113.880150 741.055481,126.882195 
	C753.572998,140.137985 780.018127,140.556213 792.001221,127.628319 
	C791.449097,126.830215 790.886963,126.017639 789.965820,124.580917 
M834.340759,88.984291 
	C837.194763,90.564987 840.048706,92.145676 843.176147,93.877815 
	C846.830200,89.843277 850.550110,85.736023 854.281982,81.615593 
	C841.817932,71.259842 822.749817,69.185257 810.465332,76.524734 
	C797.827209,84.075478 797.695435,100.396317 810.378235,107.828011 
	C813.615601,109.724976 817.361694,110.795959 820.942078,112.052567 
	C824.058167,113.146210 827.361206,113.747711 830.396484,115.011482 
	C831.666748,115.540352 832.458740,117.218094 833.468140,118.373512 
	C832.268555,119.401382 831.208557,120.745079 829.824951,121.356400 
	C828.733337,121.838715 827.133118,121.745422 825.949707,121.344345 
	C820.894531,119.631119 815.910278,117.708801 810.371582,115.668030 
	C806.907166,118.670319 802.798523,122.230896 798.702026,125.780998 
	C808.789673,138.071198 834.118958,140.764725 846.344971,131.577286 
	C856.604919,123.867348 859.613159,106.106529 841.935852,99.950226 
	C839.438721,99.080551 836.912537,98.294304 834.410828,97.437408 
	C831.131042,96.314026 827.779053,95.342751 824.633179,93.919098 
	C823.509705,93.410675 822.019531,91.523148 822.252136,90.710068 
	C822.620300,89.423294 824.259216,87.665230 825.429993,87.611008 
	C828.141785,87.485397 830.895203,88.260704 834.340759,88.984291 
M531.731995,236.775299 
	C529.378540,229.053772 527.025085,221.332245 524.763672,213.912598 
	C516.498108,213.912598 508.746643,213.912598 500.403015,213.912598 
	C509.165680,234.939682 517.736450,255.506409 526.219238,275.861938 
	C532.433044,275.861938 538.068909,275.861938 543.825012,275.861938 
	C552.809814,255.305099 561.761902,234.822891 570.850342,214.028854 
	C569.544250,213.864090 568.591431,213.644501 567.637634,213.639664 
	C561.311829,213.607559 554.981445,213.506454 548.664490,213.743362 
	C547.706726,213.779282 546.323669,215.297287 545.965088,216.399139 
	C543.706238,223.340118 541.702087,230.363632 539.570312,237.346603 
	C538.412537,241.139252 537.169006,244.905746 535.585693,249.870682 
	C534.109436,244.860138 533.032104,241.203537 531.731995,236.775299 
M278.576050,221.004166 
	C279.155090,218.475113 279.734131,215.946060 280.311005,213.426590 
	C269.392212,210.825089 265.346191,212.010315 255.039642,220.774475 
	C254.673752,218.411133 254.333237,216.211655 253.967270,213.847778 
	C247.351776,213.847778 240.802994,213.847778 234.156891,213.847778 
	C234.156891,234.607193 234.156891,255.145020 234.156891,275.659851 
	C241.447952,275.659851 248.486679,275.659851 255.939621,275.659851 
	C255.939621,265.362793 255.714005,255.399811 256.013336,245.452621 
	C256.239471,237.937408 261.452606,234.278229 268.895111,235.804138 
	C270.758270,236.186142 272.606537,236.640656 274.599030,237.093033 
	C275.886353,231.766617 277.091766,226.779114 278.576050,221.004166 
M289.753357,224.503433 
	C289.753357,241.582779 289.753357,258.662109 289.753357,276.000732 
	C293.814850,276.000732 297.291443,276.000702 300.768005,276.000702 
	C304.221558,276.000702 307.675110,276.000732 311.362030,276.000732 
	C311.362030,274.161133 311.362091,272.847534 311.362000,271.533966 
	C311.361572,263.537079 311.133514,255.532089 311.418457,247.545395 
	C311.773285,237.599136 317.066772,233.741348 326.512604,236.100281 
	C327.708527,236.398956 328.887360,236.765900 330.286011,237.161087 
	C332.312378,229.016464 334.234314,221.291748 336.184387,213.453873 
	C325.964569,210.044769 317.807129,213.612350 310.544037,221.267654 
	C310.239655,218.169922 310.021271,215.947037 309.817810,213.876312 
	C302.964417,213.876312 296.539185,213.876312 289.753357,213.876312 
	C289.753357,217.245132 289.753357,220.375305 289.753357,224.503433 
M768.358582,252.499771 
	C768.358582,260.267792 768.358582,268.035828 768.358582,275.736755 
	C775.955688,275.736755 782.885071,275.736755 789.814575,275.736755 
	C789.814575,254.927109 789.814575,234.390228 789.814575,213.869980 
	C782.553467,213.869980 775.618652,213.869980 768.358582,213.869980 
	C768.358582,226.580765 768.358582,239.040268 768.358582,252.499771 
M164.508850,136.007935 
	C167.953903,136.007935 171.398972,136.007935 174.804352,136.007935 
	C174.804352,114.916145 174.804352,94.379715 174.804352,73.877182 
	C167.532654,73.877182 160.597809,73.877182 153.704300,73.877182 
	C153.704300,94.692657 153.704300,115.244797 153.704300,136.007935 
	C157.207672,136.007935 160.366028,136.007935 164.508850,136.007935 
M474.629028,276.004395 
	C480.038483,276.004395 485.447937,276.004395 490.774109,276.004395 
	C490.774109,254.796265 490.774109,234.377228 490.774109,213.900864 
	C483.508392,213.900864 476.465851,213.900864 469.257385,213.900864 
	C469.257385,234.582550 469.257385,254.988480 469.257385,275.739349 
	C470.787750,275.831451 472.224396,275.917908 474.629028,276.004395 
M491.116516,185.531235 
	C486.606689,180.596512 478.161621,179.102203 472.538696,182.244034 
	C466.433228,185.655502 465.572235,195.539352 471.020111,199.677124 
	C475.225494,202.871185 483.847137,202.922852 488.446930,199.626648 
	C493.377533,196.093414 492.935669,191.224762 491.116516,185.531235 
M170.884354,60.774101 
	C176.190872,57.409248 178.022095,52.717876 176.142471,47.303406 
	C174.015839,41.177353 164.261673,38.484665 157.211914,42.050606 
	C152.725159,44.320103 151.423584,48.136089 151.802567,52.842213 
	C152.166718,57.364273 154.463501,60.534718 158.932266,61.135723 
	C162.590805,61.627754 166.385422,61.107738 170.884354,60.774101 
M776.827148,180.871918 
	C769.597534,182.063736 766.573181,185.401932 766.751099,191.993790 
	C766.910217,197.891052 770.373535,201.297882 776.932800,202.009186 
	C784.291016,202.807129 789.885925,199.835541 791.353149,194.350082 
	C793.659058,185.729340 788.598328,180.712402 776.827148,180.871918 
z"/>
<path fill="#040404" opacity="1.000000" stroke="none" 
	d="
M116.416809,237.502884 
	C116.416817,223.224533 116.416817,208.946167 116.416817,194.317719 
	C122.819466,194.317719 130.054947,194.317719 137.645111,194.317719 
	C137.645111,221.154724 137.645111,248.205109 137.645111,275.993988 
	C131.292908,275.993988 124.704674,276.154785 118.137993,275.850494 
	C116.908928,275.793549 115.542641,274.039673 114.617943,272.789185 
	C104.657166,259.319366 94.772247,245.793396 84.426102,231.682007 
	C84.426102,246.758835 84.426102,261.049652 84.426102,275.673096 
	C77.298531,275.673096 70.090622,275.673096 62.618820,275.673096 
	C62.618820,248.526505 62.618820,221.466537 62.618820,193.974075 
	C69.065514,193.974075 75.361053,193.782379 81.627655,194.122940 
	C83.013733,194.198257 84.593246,195.938004 85.582664,197.280579 
	C95.544983,210.798798 105.402832,224.393967 115.646545,238.209915 
	C116.140961,238.135834 116.278885,237.819351 116.416809,237.502884 
z"/>
<path fill="#030303" opacity="1.000000" stroke="none" 
	d="
M683.387817,135.465973 
	C676.260864,135.820999 669.443970,135.820999 661.909546,135.820999 
	C661.909546,132.825592 661.911438,129.746887 661.909180,126.668198 
	C661.902649,117.671455 662.017517,108.672333 661.843506,99.678810 
	C661.727966,93.706390 658.474731,90.115097 653.784607,90.183853 
	C648.649475,90.259132 645.024963,94.321236 645.004761,100.195793 
	C644.964172,111.980011 644.992676,123.764458 644.992676,135.774918 
	C637.639648,135.774918 630.700562,135.774918 623.423340,135.774918 
	C623.423340,115.251724 623.423340,94.682533 623.423340,73.864922 
	C629.938660,73.864922 636.554260,73.864922 643.445984,73.864922 
	C643.667297,75.249557 643.894470,76.670624 643.946289,76.994774 
	C650.038635,75.382736 656.130920,72.848251 662.381042,72.368111 
	C669.053589,71.855515 675.086731,74.714851 678.733948,81.619568 
	C684.408020,75.805679 690.912231,72.480331 698.971741,72.230301 
	C712.679688,71.805031 721.808899,79.982903 722.069214,93.872818 
	C722.328186,107.692268 722.125977,121.520363 722.125977,135.674652 
	C714.978882,135.674652 707.922424,135.674652 700.364014,135.674652 
	C700.364014,124.352676 700.366699,113.066582 700.363037,101.780487 
	C700.360474,93.957726 697.802246,90.152222 692.569763,90.168282 
	C686.845703,90.185837 683.800110,94.355438 683.788208,102.125954 
	C683.771240,113.120964 683.729187,124.115944 683.387817,135.465973 
z"/>
<path fill="#020202" opacity="1.000000" stroke="none" 
	d="
M1047.334961,221.843903 
	C1048.560791,225.814087 1050.376953,229.446976 1050.467407,233.122330 
	C1050.814453,247.226227 1050.608032,261.343750 1050.608032,275.728729 
	C1043.350464,275.728729 1036.302734,275.728729 1028.911743,275.728729 
	C1028.911743,263.931885 1028.920288,252.315170 1028.908447,240.698486 
	C1028.901489,233.810303 1026.127075,230.123383 1021.033875,230.174103 
	C1015.567749,230.228531 1012.140625,234.424316 1012.134766,241.112335 
	C1012.124817,252.571762 1012.132080,264.031189 1012.132080,275.745972 
	C1004.931030,275.745972 998.000854,275.745972 990.367126,275.745972 
	C990.367126,269.388550 990.395020,262.963989 990.358948,256.539825 
	C990.325317,250.550476 990.430847,244.549744 990.090759,238.575897 
	C989.780212,233.121338 986.607422,230.038025 982.166016,230.178848 
	C977.338684,230.331909 973.511780,234.021011 973.415710,239.285782 
	C973.230408,249.439636 973.364441,259.599304 973.365967,269.756561 
	C973.366272,271.703247 973.366028,273.649933 973.366028,275.793915 
	C965.962463,275.793915 959.049377,275.793915 951.943115,275.793915 
	C951.943115,255.166733 951.943115,234.747726 951.943115,213.976410 
	C958.529480,213.976410 965.086304,213.976410 971.866394,213.976410 
	C972.056091,215.243576 972.269104,216.666962 972.582581,218.761551 
	C978.162109,214.167542 984.193420,211.793640 991.003418,212.161499 
	C997.815613,212.529434 1003.629517,214.959137 1007.362610,221.682739 
	C1014.095337,214.239563 1022.357971,211.212357 1031.945801,212.425720 
	C1038.221924,213.219971 1043.828369,215.563690 1047.334961,221.843903 
z"/>
<path fill="#020202" opacity="1.000000" stroke="none" 
	d="
M504.413177,135.693115 
	C496.270966,135.834473 488.266968,137.047852 480.809326,135.546722 
	C464.058807,132.175049 453.575439,121.347549 450.493042,104.456474 
	C447.204803,86.437355 451.612305,69.401855 468.865387,58.565739 
	C486.592010,47.432232 512.851868,50.376453 527.053833,65.471527 
	C522.521118,70.347900 517.965637,75.248741 513.447021,80.109947 
	C499.787964,70.536125 490.282928,69.604340 481.375610,76.766251 
	C473.898468,82.778206 471.270477,94.237473 475.227417,103.575600 
	C478.870758,112.173576 488.004059,117.828514 496.671814,116.853004 
	C503.704498,116.061508 508.684753,111.634598 509.670654,105.007149 
	C503.862762,105.007149 498.097107,105.007149 492.127350,105.007149 
	C492.127350,99.266281 492.127350,93.858459 492.127350,88.216255 
	C505.158417,88.216255 518.073303,88.216255 530.967346,88.216255 
	C535.532166,111.572586 526.403687,129.563217 504.413177,135.693115 
z"/>
<path fill="#030303" opacity="1.000000" stroke="none" 
	d="
M196.663986,79.662804 
	C207.159164,70.297218 218.072464,69.692917 231.654327,77.790375 
	C231.654327,68.352615 231.654327,59.176624 231.654327,49.693520 
	C239.177963,49.693520 246.237427,49.693520 253.646637,49.693520 
	C253.646637,78.336288 253.646637,106.875282 253.646637,135.709869 
	C247.321503,135.709869 240.903412,135.709869 234.092499,135.709869 
	C233.926010,134.294891 233.743546,132.744095 233.613556,131.639465 
	C228.279495,133.465546 223.206528,136.146759 217.875595,136.837662 
	C205.392715,138.455460 195.038284,132.410934 190.545624,120.588142 
	C185.077789,106.199142 185.812164,92.225533 196.663986,79.662804 
M214.654633,91.972725 
	C208.077835,97.557571 206.705978,108.939659 212.309845,115.175995 
	C214.015747,117.074402 216.962463,118.395454 219.542114,118.857544 
	C224.685059,119.778770 228.510315,117.296829 230.872665,112.651695 
	C233.625702,107.238373 232.852356,97.782722 228.970093,93.797691 
	C225.087570,89.812401 220.389145,89.102234 214.654633,91.972725 
z"/>
<path fill="#030303" opacity="1.000000" stroke="none" 
	d="
M1099.918335,132.487335 
	C1099.070557,132.036163 1098.003784,131.644333 1097.455933,132.016418 
	C1079.736816,144.052200 1056.037476,134.984039 1053.920166,109.085777 
	C1053.215210,100.462746 1054.224121,92.153481 1058.957153,84.634872 
	C1066.856934,72.085709 1082.472778,68.405342 1095.061646,76.123184 
	C1095.881592,76.625862 1096.679077,77.165047 1098.056274,78.055092 
	C1098.056274,68.227051 1098.056274,59.036366 1098.056274,49.640495 
	C1105.558350,49.640495 1112.626099,49.640495 1119.912842,49.640495 
	C1119.912842,78.438934 1119.912842,106.981819 1119.912842,136.001038 
	C1114.050049,136.001038 1108.268555,136.134003 1102.505981,135.862549 
	C1101.606567,135.820175 1100.794067,133.935547 1099.918335,132.487335 
M1076.881592,96.615746 
	C1076.631836,101.471718 1075.517944,106.486084 1076.371094,111.139870 
	C1077.254517,115.959053 1081.129028,118.943428 1086.544312,119.012245 
	C1091.825073,119.079346 1096.160156,116.601707 1097.536621,111.471443 
	C1098.490723,107.915367 1098.576050,103.942787 1098.176514,100.250824 
	C1097.605347,94.974045 1094.353149,91.373932 1089.016357,90.404236 
	C1083.946777,89.483063 1079.903076,91.443886 1076.881592,96.615746 
z"/>
<path fill="#030303" opacity="1.000000" stroke="none" 
	d="
M709.966187,194.816284 
	C727.851624,189.135773 743.729431,191.453018 757.991943,204.546143 
	C753.233826,210.112320 748.635986,215.491058 743.784668,221.166199 
	C738.733459,215.811783 732.821350,212.728683 725.624634,213.256805 
	C720.172180,213.656921 715.329773,215.753616 711.571777,219.950760 
	C704.730591,227.591522 704.696228,241.534378 711.524170,248.912643 
	C720.143127,258.226288 733.139587,258.036377 746.457947,248.156998 
	C750.054626,253.832535 753.637024,259.485413 757.180054,265.076294 
	C749.696716,275.394897 728.023560,279.980316 711.365051,274.910583 
	C693.799133,269.564728 683.150024,254.906586 682.416260,235.063538 
	C681.755371,217.192795 692.362549,201.516647 709.966187,194.816284 
z"/>
<path fill="#040404" opacity="1.000000" stroke="none" 
	d="
M935.883484,73.844963 
	C938.755859,75.490280 941.245667,77.042297 943.955994,78.731834 
	C944.035767,77.125885 944.107300,75.686234 944.194153,73.937485 
	C951.325989,73.937485 958.359253,73.937485 965.594299,73.937485 
	C965.594299,94.522171 965.594299,114.937607 965.594299,135.679413 
	C958.424866,135.679413 951.352478,135.679413 943.992371,135.679413 
	C943.838501,134.247940 943.673950,132.717438 943.494385,131.046631 
	C939.946655,132.790924 936.881592,134.852707 933.502197,135.858887 
	C921.795898,139.344437 910.115723,134.657990 904.046814,123.970009 
	C897.439331,112.333450 897.171509,100.036583 902.450867,87.984550 
	C908.294128,74.645111 921.113770,69.456932 935.883484,73.844963 
M924.165161,93.682266 
	C919.708435,100.004684 919.449707,106.678047 922.936951,113.406151 
	C925.390381,118.139587 930.613159,119.894264 935.699890,118.327362 
	C940.797913,116.756996 943.322693,112.972610 943.902588,108.092834 
	C944.621399,102.044571 944.437378,95.919746 938.511841,92.079147 
	C933.755920,88.996674 929.065186,89.708229 924.165161,93.682266 
z"/>
<path fill="#040404" opacity="1.000000" stroke="none" 
	d="
M173.707260,276.578918 
	C160.341202,273.465698 151.578033,262.274139 151.183182,247.517273 
	C151.055893,242.759735 151.518326,237.841370 152.636093,233.220352 
	C157.824600,211.770096 181.827057,206.179199 195.827057,218.996124 
	C195.989243,217.156555 196.122040,215.650421 196.277222,213.890411 
	C203.388336,213.890411 210.435135,213.890411 217.612656,213.890411 
	C217.612656,234.577118 217.612656,254.997208 217.612656,275.711182 
	C210.360962,275.711182 203.283829,275.711182 195.999008,275.711182 
	C195.859818,274.300018 195.717514,272.857330 195.497879,270.630768 
	C188.918121,275.243958 182.032852,278.071564 173.707260,276.578918 
M195.399612,250.414719 
	C195.599365,247.290939 196.255325,244.116302 195.913925,241.052841 
	C194.861374,231.608215 184.517914,226.888489 177.422440,232.570526 
	C173.122589,236.013824 172.522232,241.026062 172.775131,246.162323 
	C173.104889,252.859741 176.555710,257.502441 182.097488,258.713226 
	C186.143372,259.597198 193.034363,257.750763 195.399612,250.414719 
z"/>
<path fill="#030303" opacity="1.000000" stroke="none" 
	d="
M338.358948,247.589050 
	C338.932648,242.054947 338.815125,236.767960 340.189911,231.902634 
	C345.268555,213.929703 366.358582,205.151550 383.137665,218.786652 
	C383.271301,217.198273 383.391052,215.775269 383.541290,213.989548 
	C390.411346,213.989548 397.316010,213.989548 404.609192,213.989548 
	C404.609192,234.357498 404.609192,254.873825 404.609192,275.697693 
	C397.689270,275.697693 390.615784,275.697693 383.135559,275.697693 
	C382.990265,273.981537 382.833832,272.133972 382.651031,269.974884 
	C368.580048,282.825592 347.781799,277.242096 340.929932,259.136444 
	C339.596741,255.613617 339.187866,251.740997 338.358948,247.589050 
M369.917542,258.829193 
	C376.852905,258.791290 380.705750,256.321838 382.653595,250.666183 
	C384.787262,244.471008 383.031311,235.793594 378.755219,232.665985 
	C375.195251,230.062164 371.160309,229.208557 367.016998,231.204437 
	C361.276031,233.969864 359.934357,239.133087 359.981842,244.936081 
	C360.041687,252.245773 362.536102,255.983612 369.917542,258.829193 
z"/>
<path fill="#030303" opacity="1.000000" stroke="none" 
	d="
M606.992371,119.997223 
	C606.992371,125.463631 606.992371,130.430832 606.992371,135.699615 
	C599.688416,135.699615 592.617859,135.699615 585.136597,135.699615 
	C584.990662,133.984589 584.833496,132.137817 584.650391,129.986664 
	C572.422241,141.099136 554.454224,138.681351 545.903564,124.883804 
	C538.529297,112.984612 538.591736,100.365425 543.814697,87.673080 
	C549.238525,74.492599 568.112549,65.235603 585.161804,78.763107 
	C585.284180,77.182648 585.395142,75.749664 585.532715,73.973907 
	C592.445129,73.973907 599.349609,73.973907 606.992371,73.973907 
	C606.992371,89.062248 606.992371,104.280128 606.992371,119.997223 
M584.703064,110.568619 
	C584.922852,109.093300 585.289185,107.622887 585.338623,106.141876 
	C585.675964,96.042206 580.970764,89.861595 573.248169,90.158951 
	C565.686340,90.450127 561.127502,97.306686 562.038208,107.019119 
	C562.620361,113.227646 566.370361,117.792000 571.706360,118.786842 
	C576.777039,119.732216 581.237671,117.087990 584.703064,110.568619 
z"/>
<path fill="#030303" opacity="1.000000" stroke="none" 
	d="
M1077.744385,214.512238 
	C1088.103149,210.618484 1097.470093,211.323166 1106.107544,219.126114 
	C1106.285767,217.103531 1106.420898,215.569061 1106.570435,213.870255 
	C1113.718140,213.870255 1120.622314,213.870255 1127.759033,213.870255 
	C1127.759033,234.525543 1127.759033,254.939972 1127.759033,275.679260 
	C1120.575562,275.679260 1113.355225,275.679260 1106.133179,275.679260 
	C1105.957031,273.824463 1105.791626,272.084778 1105.578979,269.845764 
	C1099.402832,275.980377 1092.307983,277.863159 1084.523193,276.664612 
	C1075.502930,275.275757 1068.910645,270.056427 1065.148438,261.876099 
	C1059.549561,249.702591 1059.388428,237.200180 1066.175293,225.537750 
	C1068.689209,221.217728 1073.609375,218.298035 1077.744385,214.512238 
M1084.019531,237.906311 
	C1084.198975,242.762344 1083.719849,247.764236 1084.753540,252.431107 
	C1085.682251,256.624542 1089.650879,258.619843 1093.931030,258.829681 
	C1098.360352,259.046844 1102.389648,257.522491 1104.182861,253.256729 
	C1105.481689,250.167084 1106.132812,246.625931 1106.250977,243.257294 
	C1106.481812,236.678589 1103.001465,232.137207 1097.271851,230.568253 
	C1092.092285,229.149902 1087.848633,231.291260 1084.019531,237.906311 
z"/>
<path fill="#030303" opacity="1.000000" stroke="none" 
	d="
M126.432266,100.437958 
	C121.988518,111.408493 117.635056,122.004890 113.554466,132.705338 
	C112.540565,135.364075 111.200882,136.206146 108.440308,136.069702 
	C103.626816,135.831772 98.793083,136.003433 93.547569,136.003433 
	C88.125000,122.470711 82.690300,108.958427 77.295570,95.430214 
	C71.891205,81.877831 66.526741,68.309540 60.974533,54.319206 
	C69.036568,54.319206 76.722397,54.319206 84.611923,54.319206 
	C90.804100,71.013435 97.023079,87.779938 103.412148,105.005020 
	C109.715546,87.701607 115.836670,70.898567 121.945251,54.129936 
	C129.693634,54.129936 137.139633,54.129936 144.997498,54.129936 
	C138.799469,69.637505 132.711411,84.869896 126.432266,100.437958 
z"/>
<path fill="#030303" opacity="1.000000" stroke="none" 
	d="
M333.522034,99.682907 
	C336.375793,82.280960 350.524963,71.509460 369.253143,72.119980 
	C393.875580,72.922638 408.799042,95.825508 399.256622,118.165947 
	C393.821503,130.890457 379.090637,138.600555 363.338043,136.965652 
	C343.659088,134.923264 331.377289,119.782921 333.522034,99.682907 
M358.052185,113.347885 
	C363.586212,119.405571 370.776123,120.093323 375.796783,115.045250 
	C381.102661,109.710396 381.339966,100.319427 376.312042,94.655281 
	C371.582672,89.327469 363.551392,89.357742 358.848938,94.721107 
	C354.528839,99.648369 354.111450,105.770760 358.052185,113.347885 
z"/>
<path fill="#030303" opacity="1.000000" stroke="none" 
	d="
M828.992615,248.028381 
	C828.992615,257.493988 828.992615,266.464752 828.992615,275.718201 
	C821.658752,275.718201 814.602356,275.718201 807.316528,275.718201 
	C807.316528,255.141968 807.316528,234.716156 807.316528,213.957977 
	C813.918274,213.957977 820.485168,213.957977 827.406006,213.957977 
	C827.661926,215.443726 827.949768,217.114258 828.111328,218.051987 
	C833.252319,216.128448 838.123108,213.378540 843.301880,212.547653 
	C857.112854,210.331833 867.236694,218.520325 867.812134,232.606064 
	C868.395325,246.879990 867.940857,261.196320 867.940857,275.748474 
	C860.775391,275.748474 853.697754,275.748474 846.089844,275.748474 
	C846.089844,263.400208 846.068481,251.127625 846.101929,238.855179 
	C846.113159,234.748108 844.632385,230.968887 840.451294,230.755951 
	C837.259644,230.593414 833.756470,232.438248 830.787231,234.097610 
	C829.644104,234.736481 829.288879,237.302078 829.116699,239.043411 
	C828.839111,241.850098 829.010742,244.701202 828.992615,248.028381 
z"/>
<path fill="#020202" opacity="1.000000" stroke="none" 
	d="
M1001.523132,73.808701 
	C1002.287109,75.588676 1002.642944,77.183357 1002.710022,77.483810 
	C1008.807068,75.769287 1014.754395,73.171654 1020.897400,72.569580 
	C1032.307739,71.451233 1040.331177,77.796600 1041.920410,89.082001 
	C1043.027100,96.941315 1042.797485,105.002220 1042.959229,112.977226 
	C1043.110840,120.449104 1042.991821,127.926453 1042.991821,135.700836 
	C1035.678101,135.700836 1028.601074,135.700836 1020.912170,135.700836 
	C1020.912170,128.378052 1020.911987,120.954193 1020.912170,113.530334 
	C1020.912231,108.698151 1020.972473,103.865028 1020.897095,99.034019 
	C1020.812500,93.608727 1018.069031,90.409180 1013.459839,90.167503 
	C1008.322754,89.898148 1004.085327,93.497169 1003.943787,98.828522 
	C1003.705200,107.818810 1003.818665,116.818504 1003.790283,125.814262 
	C1003.780334,128.963272 1003.788635,132.112366 1003.788635,135.631104 
	C996.530090,135.631104 989.484314,135.631104 981.912170,135.631104 
	C981.912170,125.442276 981.912170,115.174179 981.912170,104.906082 
	C981.912170,94.606323 981.912170,84.306557 981.912170,73.623413 
	C988.562561,73.623413 994.838745,73.623413 1001.523132,73.808701 
z"/>
<path fill="#030303" opacity="1.000000" stroke="none" 
	d="
M285.303589,134.906555 
	C258.598053,125.358315 259.970428,89.909058 277.110931,78.160667 
	C287.735077,70.878716 299.213470,69.962158 310.579010,75.525711 
	C321.227234,80.738121 325.945496,90.226738 326.127869,101.986488 
	C326.161285,104.141579 326.132629,106.297630 326.132629,108.970863 
	C312.985229,108.970863 299.948456,108.970863 286.754913,108.970863 
	C289.832855,118.611099 302.210632,120.750221 313.889618,113.727638 
	C317.185760,118.331314 320.518646,122.986351 324.130219,128.030579 
	C312.400391,137.215256 299.623871,139.160248 285.303589,134.906555 
M289.799042,98.034508 
	C295.208710,98.034508 300.618347,98.034508 306.361267,98.034508 
	C305.371826,92.380371 301.817352,90.471321 297.211121,90.082924 
	C291.592316,89.609146 287.976196,92.193108 285.986115,98.036995 
	C287.023407,98.036995 287.953461,98.036995 289.799042,98.034508 
z"/>
<path fill="#030303" opacity="1.000000" stroke="none" 
	d="
M940.132874,244.979263 
	C940.772522,248.697464 939.218384,249.250290 936.286804,249.209793 
	C924.508728,249.047028 912.726990,249.142471 900.859131,249.142471 
	C903.615479,258.580688 915.177246,260.594879 928.059021,253.955246 
	C931.292419,258.473785 934.557861,263.036987 937.812805,267.585663 
	C929.557312,276.551605 912.330200,279.687439 898.838501,274.737518 
	C886.659180,270.269073 879.300049,259.946014 878.767090,246.582291 
	C877.792542,222.148041 898.322510,206.268982 920.997986,213.918472 
	C933.335632,218.080551 940.119385,228.920853 940.132874,244.979263 
M918.451660,233.315582 
	C910.983398,227.425613 901.957092,229.717285 900.273193,237.861847 
	C906.843933,237.861847 913.427307,237.861847 920.591064,237.861847 
	C919.928650,236.276230 919.444092,235.116333 918.451660,233.315582 
z"/>
<path fill="#030303" opacity="1.000000" stroke="none" 
	d="
M598.943115,212.831757 
	C618.509644,209.171814 637.850403,222.083847 634.910767,249.006409 
	C621.950745,249.006409 608.917603,249.006409 595.716125,249.006409 
	C599.036682,258.649597 611.250916,260.731720 622.895813,253.724655 
	C626.195312,258.337830 629.528992,262.998779 632.847290,267.638214 
	C620.041992,280.723633 593.653870,280.065155 581.424805,266.482971 
	C569.346802,253.068558 571.399719,229.221497 585.963501,218.441803 
	C589.553040,215.784958 594.302734,214.695511 598.943115,212.831757 
M599.364868,231.620392 
	C597.712219,233.471237 596.059570,235.322083 593.735535,237.924866 
	C601.781616,237.924866 608.368835,237.924866 614.987366,237.924866 
	C613.847961,230.808212 608.405640,228.434540 599.364868,231.620392 
z"/>
<path fill="#020202" opacity="1.000000" stroke="none" 
	d="
M790.145264,124.892990 
	C790.886963,126.017639 791.449097,126.830215 792.001221,127.628319 
	C780.018127,140.556213 753.572998,140.137985 741.055481,126.882195 
	C728.777588,113.880150 730.379700,90.022575 744.739380,78.723228 
	C754.874817,70.747910 766.527771,70.023613 778.042175,75.110016 
	C788.528931,79.742462 793.495178,88.759247 794.279541,100.064217 
	C794.474487,102.873550 794.308655,105.707909 794.308655,109.140266 
	C787.481934,109.140266 780.709473,109.140266 773.936951,109.140266 
	C767.370056,109.140266 760.803101,109.140266 753.882568,109.140266 
	C760.775879,119.159195 770.442078,120.695747 782.173462,113.852715 
	C784.751648,117.402245 787.358765,120.991585 790.145264,124.892990 
M754.405334,97.868980 
	C761.104431,97.868980 767.803467,97.868980 774.894165,97.868980 
	C773.501709,92.810326 770.390259,90.473328 765.912109,90.098846 
	C760.432983,89.640671 756.274292,91.795525 754.405334,97.868980 
z"/>
<path fill="#030303" opacity="1.000000" stroke="none" 
	d="
M833.986267,88.827515 
	C830.895203,88.260704 828.141785,87.485397 825.429993,87.611008 
	C824.259216,87.665230 822.620300,89.423294 822.252136,90.710068 
	C822.019531,91.523148 823.509705,93.410675 824.633179,93.919098 
	C827.779053,95.342751 831.131042,96.314026 834.410828,97.437408 
	C836.912537,98.294304 839.438721,99.080551 841.935852,99.950226 
	C859.613159,106.106529 856.604919,123.867348 846.344971,131.577286 
	C834.118958,140.764725 808.789673,138.071198 798.702026,125.780998 
	C802.798523,122.230896 806.907166,118.670319 810.371582,115.668030 
	C815.910278,117.708801 820.894531,119.631119 825.949707,121.344345 
	C827.133118,121.745422 828.733337,121.838715 829.824951,121.356400 
	C831.208557,120.745079 832.268555,119.401382 833.468140,118.373505 
	C832.458740,117.218094 831.666748,115.540352 830.396484,115.011482 
	C827.361206,113.747711 824.058167,113.146210 820.942078,112.052567 
	C817.361694,110.795959 813.615601,109.724976 810.378235,107.828011 
	C797.695435,100.396317 797.827209,84.075478 810.465332,76.524734 
	C822.749817,69.185257 841.817932,71.259842 854.281982,81.615593 
	C850.550110,85.736023 846.830200,89.843277 843.176147,93.877815 
	C840.048706,92.145676 837.194763,90.564987 833.986267,88.827515 
z"/>
<path fill="#030303" opacity="1.000000" stroke="none" 
	d="
M531.843384,237.161133 
	C533.032104,241.203537 534.109436,244.860138 535.585693,249.870682 
	C537.169006,244.905746 538.412537,241.139252 539.570312,237.346603 
	C541.702087,230.363632 543.706238,223.340118 545.965088,216.399139 
	C546.323669,215.297287 547.706726,213.779282 548.664490,213.743362 
	C554.981445,213.506454 561.311829,213.607559 567.637634,213.639664 
	C568.591431,213.644501 569.544250,213.864090 570.850342,214.028854 
	C561.761902,234.822891 552.809814,255.305099 543.825012,275.861938 
	C538.068909,275.861938 532.433044,275.861938 526.219238,275.861938 
	C517.736450,255.506409 509.165680,234.939682 500.403015,213.912598 
	C508.746643,213.912598 516.498108,213.912598 524.763672,213.912598 
	C527.025085,221.332245 529.378540,229.053772 531.843384,237.161133 
z"/>
<path fill="#030303" opacity="1.000000" stroke="none" 
	d="
M278.436615,221.397888 
	C277.091766,226.779114 275.886353,231.766617 274.599030,237.093033 
	C272.606537,236.640656 270.758270,236.186142 268.895111,235.804138 
	C261.452606,234.278229 256.239471,237.937408 256.013336,245.452621 
	C255.714005,255.399811 255.939621,265.362793 255.939621,275.659851 
	C248.486679,275.659851 241.447952,275.659851 234.156891,275.659851 
	C234.156891,255.145020 234.156891,234.607193 234.156891,213.847778 
	C240.802994,213.847778 247.351776,213.847778 253.967270,213.847778 
	C254.333237,216.211655 254.673752,218.411133 255.039642,220.774475 
	C265.346191,212.010315 269.392212,210.825089 280.311005,213.426590 
	C279.734131,215.946060 279.155090,218.475113 278.436615,221.397888 
z"/>
<path fill="#010101" opacity="1.000000" stroke="none" 
	d="
M289.753357,224.004456 
	C289.753357,220.375305 289.753357,217.245132 289.753357,213.876312 
	C296.539185,213.876312 302.964417,213.876312 309.817810,213.876312 
	C310.021271,215.947037 310.239655,218.169922 310.544037,221.267654 
	C317.807129,213.612350 325.964569,210.044769 336.184387,213.453873 
	C334.234314,221.291748 332.312378,229.016464 330.286011,237.161087 
	C328.887360,236.765900 327.708527,236.398956 326.512604,236.100281 
	C317.066772,233.741348 311.773285,237.599136 311.418457,247.545395 
	C311.133514,255.532089 311.361572,263.537079 311.362000,271.533966 
	C311.362091,272.847534 311.362030,274.161133 311.362030,276.000732 
	C307.675110,276.000732 304.221558,276.000702 300.768005,276.000702 
	C297.291443,276.000702 293.814850,276.000732 289.753357,276.000732 
	C289.753357,258.662109 289.753357,241.582779 289.753357,224.004456 
z"/>
<path fill="#050505" opacity="1.000000" stroke="none" 
	d="
M768.358582,251.999786 
	C768.358582,239.040268 768.358582,226.580765 768.358582,213.869980 
	C775.618652,213.869980 782.553467,213.869980 789.814575,213.869980 
	C789.814575,234.390228 789.814575,254.927109 789.814575,275.736755 
	C782.885071,275.736755 775.955688,275.736755 768.358582,275.736755 
	C768.358582,268.035828 768.358582,260.267792 768.358582,251.999786 
z"/>
<path fill="#050505" opacity="1.000000" stroke="none" 
	d="
M164.016632,136.007935 
	C160.366028,136.007935 157.207672,136.007935 153.704300,136.007935 
	C153.704300,115.244797 153.704300,94.692657 153.704300,73.877182 
	C160.597809,73.877182 167.532654,73.877182 174.804352,73.877182 
	C174.804352,94.379715 174.804352,114.916145 174.804352,136.007935 
	C171.398972,136.007935 167.953903,136.007935 164.016632,136.007935 
z"/>
<path fill="#030303" opacity="1.000000" stroke="none" 
	d="
M474.145020,276.004395 
	C472.224396,275.917908 470.787750,275.831451 469.257385,275.739349 
	C469.257385,254.988480 469.257385,234.582550 469.257385,213.900864 
	C476.465851,213.900864 483.508392,213.900864 490.774109,213.900864 
	C490.774109,234.377228 490.774109,254.796265 490.774109,276.004395 
	C485.447937,276.004395 480.038483,276.004395 474.145020,276.004395 
z"/>
<path fill="#040404" opacity="1.000000" stroke="none" 
	d="
M446.858765,232.996536 
	C446.858765,247.112473 446.858765,261.228424 446.858765,275.675293 
	C439.774261,275.675293 432.731964,275.675293 425.108978,275.675293 
	C425.108978,261.742828 425.108978,247.836014 425.610565,233.459717 
	C433.027679,232.992325 439.943237,232.994431 446.858765,232.996536 
z"/>
<path fill="#010101" opacity="1.000000" stroke="none" 
	d="
M447.124817,232.653717 
	C439.943237,232.994431 433.027679,232.992325 425.656403,232.992798 
	C421.915833,232.538101 418.631012,232.080841 415.124451,231.592697 
	C415.124451,225.853409 415.124451,219.996811 415.124451,213.457245 
	C418.236786,213.457245 421.285736,213.457245 425.151306,213.242569 
	C428.098999,213.029495 430.236908,213.140778 432.359924,213.010223 
	C437.002747,212.724686 441.638031,212.316345 446.399231,211.971252 
	C446.522064,211.984314 446.768494,212.001785 446.768494,212.001785 
	C450.283203,212.801254 453.797882,213.600723 457.705383,214.489532 
	C457.705383,219.800827 457.705383,225.700180 457.705383,232.310883 
	C454.246246,232.310883 450.818542,232.310883 447.124817,232.653717 
z"/>
<path fill="#040404" opacity="1.000000" stroke="none" 
	d="
M491.309814,185.858063 
	C492.935669,191.224762 493.377533,196.093414 488.446930,199.626648 
	C483.847137,202.922852 475.225494,202.871185 471.020111,199.677124 
	C465.572235,195.539352 466.433228,185.655502 472.538696,182.244034 
	C478.161621,179.102203 486.606689,180.596512 491.309814,185.858063 
z"/>
<path fill="#040404" opacity="1.000000" stroke="none" 
	d="
M170.502045,60.905235 
	C166.385422,61.107738 162.590805,61.627754 158.932266,61.135723 
	C154.463501,60.534718 152.166718,57.364273 151.802567,52.842213 
	C151.423584,48.136089 152.725159,44.320103 157.211914,42.050606 
	C164.261673,38.484665 174.015839,41.177353 176.142471,47.303406 
	C178.022095,52.717876 176.190872,57.409248 170.502045,60.905235 
z"/>
<path fill="#040404" opacity="1.000000" stroke="none" 
	d="
M777.266846,180.846756 
	C788.598328,180.712402 793.659058,185.729340 791.353149,194.350082 
	C789.885925,199.835541 784.291016,202.807129 776.932800,202.009186 
	C770.373535,201.297882 766.910217,197.891052 766.751099,191.993790 
	C766.573181,185.401932 769.597534,182.063736 777.266846,180.846756 
z"/>
<path fill="#010101" opacity="1.000000" stroke="none" 
	d="
M446.869751,211.544952 
	C446.768494,212.001785 446.522064,211.984314 445.900208,211.974594 
	C438.600220,211.952286 431.922058,211.939697 425.243896,211.927109 
	C425.196167,207.936447 425.148376,203.945801 425.325592,199.372101 
	C425.758942,198.570419 425.912170,198.318253 426.010315,198.032578 
	C432.763153,198.032578 439.516022,198.032578 446.970978,198.032578 
	C446.970978,202.341171 446.970978,206.714645 446.869751,211.544952 
z"/>
<path fill="#3F3F3F" opacity="1.000000" stroke="none" 
	d="
M425.147644,212.190445 
	C431.922058,211.939697 438.600220,211.952286 445.777405,211.961517 
	C441.638031,212.316345 437.002747,212.724686 432.359924,213.010223 
	C430.236908,213.140778 428.098999,213.029495 425.501678,213.021088 
	C425.040802,212.827438 425.046112,212.640610 425.147644,212.190445 
z"/>
<path fill="#3F3F3F" opacity="1.000000" stroke="none" 
	d="
M425.703430,197.994720 
	C425.912170,198.318253 425.758942,198.570419 425.366150,198.913544 
	C425.253357,198.677628 425.324982,198.317245 425.703430,197.994720 
z"/>
<path fill="#FEFEFE" opacity="1.000000" stroke="none" 
	d="
M116.306946,237.630951 
	C116.278885,237.819351 116.140961,238.135834 115.992722,238.235870 
	C115.982407,238.019424 116.197083,237.759033 116.306946,237.630951 
z"/>
<path fill="#FAFAFA" opacity="1.000000" stroke="none" 
	d="
M214.984177,91.775398 
	C220.389145,89.102234 225.087570,89.812401 228.970093,93.797691 
	C232.852356,97.782722 233.625702,107.238373 230.872665,112.651695 
	C228.510315,117.296829 224.685059,119.778770 219.542114,118.857544 
	C216.962463,118.395454 214.015747,117.074402 212.309845,115.175995 
	C206.705978,108.939659 208.077835,97.557571 214.984177,91.775398 
z"/>
<path fill="#F9F9F9" opacity="1.000000" stroke="none" 
	d="
M1077.026855,96.258240 
	C1079.903076,91.443886 1083.946777,89.483063 1089.016357,90.404236 
	C1094.353149,91.373932 1097.605347,94.974045 1098.176514,100.250824 
	C1098.576050,103.942787 1098.490723,107.915367 1097.536621,111.471443 
	C1096.160156,116.601707 1091.825073,119.079346 1086.544312,119.012245 
	C1081.129028,118.943428 1077.254517,115.959053 1076.371094,111.139870 
	C1075.517944,106.486084 1076.631836,101.471718 1077.026855,96.258240 
z"/>
<path fill="#F9F9F9" opacity="1.000000" stroke="none" 
	d="
M924.429138,93.409348 
	C929.065186,89.708229 933.755920,88.996674 938.511841,92.079147 
	C944.437378,95.919746 944.621399,102.044571 943.902588,108.092834 
	C943.322693,112.972610 940.797913,116.756996 935.699890,118.327362 
	C930.613159,119.894264 925.390381,118.139587 922.936951,113.406151 
	C919.449707,106.678047 919.708435,100.004684 924.429138,93.409348 
z"/>
<path fill="#F9F9F9" opacity="1.000000" stroke="none" 
	d="
M195.253998,250.796280 
	C193.034363,257.750763 186.143372,259.597198 182.097488,258.713226 
	C176.555710,257.502441 173.104889,252.859741 172.775131,246.162323 
	C172.522232,241.026062 173.122589,236.013824 177.422440,232.570526 
	C184.517914,226.888489 194.861374,231.608215 195.913925,241.052841 
	C196.255325,244.116302 195.599365,247.290939 195.253998,250.796280 
z"/>
<path fill="#FAFAFA" opacity="1.000000" stroke="none" 
	d="
M369.526550,258.750549 
	C362.536102,255.983612 360.041687,252.245773 359.981842,244.936081 
	C359.934357,239.133087 361.276031,233.969864 367.016998,231.204437 
	C371.160309,229.208557 375.195251,230.062164 378.755219,232.665985 
	C383.031311,235.793594 384.787262,244.471008 382.653595,250.666183 
	C380.705750,256.321838 376.852905,258.791290 369.526550,258.750549 
z"/>
<path fill="#FAFAFA" opacity="1.000000" stroke="none" 
	d="
M584.513550,110.937958 
	C581.237671,117.087990 576.777039,119.732216 571.706360,118.786842 
	C566.370361,117.792000 562.620361,113.227646 562.038208,107.019119 
	C561.127502,97.306686 565.686340,90.450127 573.248169,90.158951 
	C580.970764,89.861595 585.675964,96.042206 585.338623,106.141876 
	C585.289185,107.622887 584.922852,109.093300 584.513550,110.937958 
z"/>
<path fill="#FAFAFA" opacity="1.000000" stroke="none" 
	d="
M1084.131714,237.524216 
	C1087.848633,231.291260 1092.092285,229.149902 1097.271851,230.568253 
	C1103.001465,232.137207 1106.481812,236.678589 1106.250977,243.257294 
	C1106.132812,246.625931 1105.481689,250.167084 1104.182861,253.256729 
	C1102.389648,257.522491 1098.360352,259.046844 1093.931030,258.829681 
	C1089.650879,258.619843 1085.682251,256.624542 1084.753540,252.431107 
	C1083.719849,247.764236 1084.198975,242.762344 1084.131714,237.524216 
z"/>
<path fill="#FAFAFA" opacity="1.000000" stroke="none" 
	d="
M357.837036,113.033829 
	C354.111450,105.770760 354.528839,99.648369 358.848938,94.721107 
	C363.551392,89.357742 371.582672,89.327469 376.312042,94.655281 
	C381.339966,100.319427 381.102661,109.710396 375.796783,115.045250 
	C370.776123,120.093323 363.586212,119.405571 357.837036,113.033829 
z"/>
<path fill="#F9F9F9" opacity="1.000000" stroke="none" 
	d="
M289.341278,98.035751 
	C287.953461,98.036995 287.023407,98.036995 285.986115,98.036995 
	C287.976196,92.193108 291.592316,89.609146 297.211121,90.082924 
	C301.817352,90.471321 305.371826,92.380371 306.361267,98.034508 
	C300.618347,98.034508 295.208710,98.034508 289.341278,98.035751 
z"/>
<path fill="#F9F9F9" opacity="1.000000" stroke="none" 
	d="
M918.705566,233.636017 
	C919.444092,235.116333 919.928650,236.276230 920.591064,237.861847 
	C913.427307,237.861847 906.843933,237.861847 900.273193,237.861847 
	C901.957092,229.717285 910.983398,227.425613 918.705566,233.636017 
z"/>
<path fill="#F9F9F9" opacity="1.000000" stroke="none" 
	d="
M599.704834,231.419464 
	C608.405640,228.434540 613.847961,230.808212 614.987366,237.924866 
	C608.368835,237.924866 601.781616,237.924866 593.735535,237.924866 
	C596.059570,235.322083 597.712219,233.471237 599.704834,231.419464 
z"/>
<path fill="#F5F5F5" opacity="1.000000" stroke="none" 
	d="
M754.250977,97.484436 
	C756.274292,91.795525 760.432983,89.640671 765.912109,90.098846 
	C770.390259,90.473328 773.501709,92.810326 774.894165,97.868980 
	C767.803467,97.868980 761.104431,97.868980 754.250977,97.484436 
z"/>
</svg>