<?xml version="1.0" standalone="no"?>
<!DOCTYPE svg PUBLIC "-//W3C//DTD SVG 20010904//EN"
 "http://www.w3.org/TR/2001/REC-SVG-20010904/DTD/svg10.dtd">
<svg version="1.0" xmlns="http://www.w3.org/2000/svg"
 width="300.000000pt" height="125.000000pt" viewBox="0 0 300.000000 125.000000"
 preserveAspectRatio="xMidYMid meet">
<metadata>
Created by potrace 1.10, written by Peter Selinger 2001-2011
</metadata>
<g transform="translate(0.000000,125.000000) scale(0.100000,-0.100000)"
fill="#000000" stroke="none">
<path d="M304 895 c-10 -24 19 -49 45 -40 16 5 21 13 19 28 -4 28 -55 37 -64
12z"/>
<path d="M520 851 c0 -35 -2 -38 -25 -33 -39 7 -71 -5 -83 -33 -37 -81 27
-163 99 -125 13 7 19 7 19 0 0 -5 11 -10 25 -10 l25 0 0 120 0 120 -30 0 c-28
0 -30 -2 -30 -39z m-10 -85 c6 -8 10 -25 8 -38 -2 -17 -10 -23 -28 -23 -20 0
-26 6 -28 29 -5 40 25 59 48 32z"/>
<path d="M2860 851 l0 -39 -39 5 c-31 4 -43 1 -60 -16 -46 -46 -13 -151 48
-151 15 0 32 5 39 12 9 9 12 9 12 0 0 -7 13 -12 30 -12 l30 0 0 120 0 120 -30
0 c-28 0 -30 -2 -30 -39z m-10 -85 c18 -22 9 -60 -16 -64 -31 -4 -50 23 -36
53 13 28 34 32 52 11z"/>
<path d="M62 866 c2 -6 21 -57 43 -113 36 -92 43 -103 65 -103 22 0 29 11 68
108 23 59 42 110 42 113 0 4 -60 0 -60 -5 0 0 -11 -32 -24 -70 l-24 -68 -23
70 c-21 67 -24 70 -56 74 -20 3 -33 0 -31 -6z"/>
<path d="M1163 860 c-40 -24 -53 -48 -53 -99 0 -79 85 -132 160 -101 34 14 60
55 60 95 0 24 -3 25 -55 25 -48 0 -55 -2 -55 -20 0 -15 7 -20 25 -20 30 0 33
-15 6 -30 -25 -13 -68 5 -77 32 -17 54 31 99 81 76 22 -10 29 -9 46 9 l20 20
-34 17 c-46 21 -85 20 -124 -4z"/>
<path d="M310 735 l0 -85 30 0 30 0 0 85 0 85 -30 0 -30 0 0 -85z"/>
<path d="M631 794 c-36 -46 -27 -105 20 -129 33 -17 58 -19 94 -5 22 8 24 12
13 29 -9 14 -19 18 -43 14 -22 -3 -35 0 -45 12 -13 16 -10 17 43 14 56 -4 57
-4 57 24 0 65 -97 94 -139 41z m87 -31 c2 -9 -7 -13 -28 -13 -28 0 -31 2 -20
15 15 18 41 16 48 -2z"/>
<path d="M832 813 c-7 -3 -19 -18 -28 -35 -47 -91 73 -173 147 -99 16 16 29
39 29 51 0 29 -26 76 -45 84 -19 7 -84 7 -103 -1z m78 -48 c26 -31 -13 -82
-44 -56 -21 18 -20 48 2 60 23 14 28 13 42 -4z"/>
<path d="M1376 801 c-57 -63 7 -185 76 -142 11 7 18 7 18 1 0 -5 14 -10 30
-10 l30 0 0 84 0 85 -69 0 c-53 0 -72 -4 -85 -18z m80 -29 c32 -22 15 -78 -22
-70 -22 4 -31 43 -14 64 14 16 20 17 36 6z"/>
<path d="M1575 734 l0 -84 28 0 c26 0 27 2 27 54 0 35 5 58 15 66 24 20 35 2
35 -61 0 -59 0 -59 30 -59 30 0 30 0 30 59 0 62 11 81 35 61 10 -8 12 -26 8
-66 l-6 -54 32 0 31 0 0 73 c0 43 -5 78 -12 85 -15 15 -62 16 -88 2 -12 -6
-21 -7 -25 -1 -3 6 -36 10 -73 10 l-67 0 0 -85z"/>
<path d="M1896 801 c-9 -10 -19 -35 -23 -54 -5 -31 -1 -40 25 -67 34 -34 84
-40 118 -16 27 20 5 41 -43 41 -22 0 -38 5 -41 14 -4 11 7 13 53 9 l57 -5 -6
30 c-10 48 -33 67 -81 67 -28 0 -47 -6 -59 -19z m84 -36 c11 -13 8 -15 -19
-15 -30 0 -39 9 -24 23 11 11 30 8 43 -8z"/>
<path d="M2071 806 c-7 -8 -11 -27 -9 -43 2 -22 10 -30 38 -39 19 -6 36 -16
38 -23 5 -14 -34 -15 -43 -1 -4 6 -13 5 -25 -3 -26 -16 -25 -21 5 -35 60 -28
129 -2 123 45 -3 27 -14 36 -62 53 -21 8 -26 14 -19 21 8 8 17 7 33 -1 18 -10
25 -9 39 4 14 15 14 18 1 26 -24 15 -106 12 -119 -4z"/>
<path d="M2340 793 c-28 -36 -26 -88 5 -118 26 -27 64 -32 83 -13 9 9 12 9 12
0 0 -7 13 -12 30 -12 l30 0 0 84 0 85 -70 0 c-63 0 -71 -2 -90 -26z m88 -22
c8 -5 12 -21 10 -37 -2 -23 -8 -29 -28 -29 -20 0 -26 6 -28 29 -3 25 10 46 28
46 3 0 11 -4 18 -9z"/>
<path d="M2540 734 l0 -84 30 0 c30 0 30 0 30 59 0 45 4 60 16 65 27 10 34 -3
34 -65 0 -59 0 -59 30 -59 30 0 30 0 30 59 0 33 -4 71 -9 85 -9 23 -14 25 -85
24 l-76 0 0 -84z"/>
<path d="M1156 514 c-9 -23 2 -34 35 -34 24 0 29 4 29 25 0 21 -5 25 -29 25
-17 0 -31 -6 -35 -16z"/>
<path d="M1964 515 c-9 -22 9 -37 37 -33 16 2 24 10 24 23 0 26 -52 35 -61 10z"/>
<path d="M60 388 l0 -113 30 0 30 0 0 65 0 64 43 -62 c36 -53 46 -62 73 -62
l30 0 2 110 1 110 -32 0 -33 0 4 -67 4 -68 -47 68 c-40 56 -52 67 -76 67 l-29
0 0 -112z"/>
<path d="M1795 488 c-37 -20 -55 -51 -55 -99 0 -83 66 -132 149 -109 49 13 55
21 35 48 -12 18 -19 20 -34 12 -28 -15 -55 -12 -73 8 -43 47 4 118 60 93 21
-10 29 -9 45 6 19 17 19 18 -2 35 -25 20 -94 24 -125 6z"/>
<path d="M1040 465 c0 -16 -6 -25 -16 -25 -10 0 -14 -7 -12 -22 2 -13 9 -22
16 -20 8 1 12 -16 12 -60 l0 -63 30 0 30 0 0 62 c0 51 3 61 15 57 11 -5 15 1
15 20 0 16 -6 26 -15 26 -9 0 -15 9 -15 25 0 21 -5 25 -30 25 -25 0 -30 -4
-30 -25z"/>
<path d="M342 443 c-16 -6 -42 -56 -42 -82 0 -55 57 -105 96 -83 9 5 32 6 50
2 l34 -8 0 89 c0 49 -1 89 -3 89 -1 0 -17 -4 -34 -9 -20 -6 -35 -6 -38 0 -6
10 -41 11 -63 2z m76 -77 c4 -35 -9 -50 -37 -41 -15 4 -21 15 -21 34 0 34 8
43 35 39 14 -2 21 -12 23 -32z"/>
<path d="M529 446 c-1 0 -2 -38 -3 -83 -3 -90 -7 -84 51 -83 4 0 6 18 4 41 -3
46 13 72 40 64 12 -4 19 -1 19 7 0 7 3 23 6 36 8 27 -20 31 -48 5 -10 -9 -18
-11 -18 -6 0 8 -46 25 -51 19z"/>
<path d="M680 446 c-1 0 -3 -38 -5 -83 -5 -90 -9 -84 52 -83 4 0 6 18 4 41 -3
46 13 72 40 64 12 -4 19 -1 19 7 0 7 3 23 6 36 8 27 -20 31 -48 5 -10 -9 -18
-11 -18 -6 0 8 -48 26 -50 19z"/>
<path d="M836 427 c-36 -36 -36 -98 0 -133 19 -19 31 -24 47 -19 12 4 41 7 65
6 l43 -2 -3 83 c-2 61 -6 82 -16 80 -23 -4 -57 -3 -84 3 -21 6 -32 1 -52 -18z
m88 -49 c8 -13 8 -23 0 -35 -17 -28 -42 -27 -55 1 -21 46 28 76 55 34z"/>
<path d="M1160 360 l0 -87 30 5 30 4 0 78 0 78 -30 4 -30 5 0 -87z"/>
<path d="M1250 438 c0 -4 14 -42 31 -83 28 -66 35 -75 58 -75 23 0 30 9 59 78
17 42 32 80 32 83 0 3 -14 6 -30 5 -26 -1 -32 -6 -40 -36 -6 -19 -10 -41 -10
-47 0 -7 -4 -13 -10 -13 -5 0 -10 6 -10 13 0 6 -4 28 -10 47 -8 30 -14 35 -40
36 -16 1 -30 -3 -30 -8z"/>
<path d="M1477 430 c-51 -40 -42 -120 17 -149 23 -11 37 -11 67 -2 22 7 39 15
39 19 0 18 -25 31 -50 26 -17 -4 -31 0 -39 10 -12 14 -7 16 43 16 60 0 66 7
45 53 -21 47 -80 60 -122 27z m77 -39 c3 -5 -8 -11 -24 -13 -29 -4 -37 1 -23
15 9 10 41 9 47 -2z"/>
<path d="M1970 360 l0 -87 30 5 31 4 -3 81 c-3 80 -3 80 -30 81 l-28 2 0 -86z"/>
<path d="M2070 366 l0 -84 30 -4 29 -4 3 60 c3 53 6 61 23 61 17 0 20 -8 23
-61 l3 -60 30 4 31 5 -4 69 c-4 79 -23 104 -68 93 -37 -9 -43 -9 -73 -1 l-27
6 0 -84z"/>
<path d="M2313 440 c-39 -16 -57 -85 -33 -130 13 -24 70 -43 104 -34 31 7 38
17 30 39 -5 11 -14 14 -33 10 -16 -3 -34 0 -46 9 -19 14 -16 15 38 16 54 0 57
1 57 25 0 14 -11 37 -25 50 -25 26 -54 30 -92 15z m61 -49 c3 -5 -8 -11 -24
-13 -29 -4 -37 1 -23 15 9 10 41 9 47 -2z"/>
<path d="M2460 362 l0 -88 28 1 c26 0 27 3 32 60 4 52 8 60 25 60 18 0 20 -7
21 -57 1 -32 4 -58 8 -58 56 0 53 -3 49 48 -4 53 7 78 31 69 12 -5 16 -20 16
-64 0 -58 0 -58 30 -58 l30 0 0 68 c0 54 -4 71 -20 87 -24 24 -48 25 -77 5
-18 -13 -22 -13 -33 0 -14 17 -56 20 -65 6 -3 -6 -18 -6 -38 0 -17 5 -33 9
-34 9 -2 0 -3 -40 -3 -88z"/>
<path d="M2786 427 c-54 -54 -24 -150 45 -149 19 0 51 1 72 1 l37 0 0 86 0 85
-27 -6 c-30 -8 -35 -8 -75 2 -21 5 -33 0 -52 -19z m92 -55 c4 -26 -13 -52 -35
-52 -19 0 -33 41 -21 63 13 26 52 18 56 -11z"/>
</g>
</svg>
