<?xml version="1.0" standalone="no"?>
<!DOCTYPE svg PUBLIC "-//W3C//DTD SVG 20010904//EN"
 "http://www.w3.org/TR/2001/REC-SVG-20010904/DTD/svg10.dtd">
<svg version="1.0" xmlns="http://www.w3.org/2000/svg"
 width="900.000000pt" height="135.000000pt" viewBox="0 0 900.000000 135.000000"
 preserveAspectRatio="xMidYMid meet">
<metadata>
Created by potrace 1.10, written by Peter Selinger 2001-2011
</metadata>
<g transform="translate(0.000000,135.000000) scale(0.100000,-0.100000)"
fill="#000000" stroke="none">
<path d="M506 794 c-21 -21 -20 -40 4 -64 24 -24 38 -25 68 -4 24 17 29 53 10
72 -17 17 -64 15 -82 -4z"/>
<path d="M6204 802 c-18 -12 -25 -42 -14 -62 14 -26 43 -33 74 -19 20 10 26
19 26 45 0 33 -13 44 -53 44 -12 0 -27 -4 -33 -8z"/>
<path d="M7387 792 c-10 -10 -17 -23 -17 -29 0 -13 44 -53 58 -53 23 0 62 32
62 50 0 46 -71 67 -103 32z"/>
<path d="M808 765 c-3 -3 -1 -26 5 -50 6 -25 8 -47 6 -49 -2 -3 -23 1 -46 7
-34 9 -47 8 -69 -3 -43 -24 -58 -55 -58 -128 0 -63 1 -66 39 -99 43 -37 64
-40 106 -16 27 16 29 16 49 -2 16 -15 25 -17 38 -8 14 9 17 29 18 129 0 65 4
143 8 172 l9 52 -50 0 c-27 0 -52 -2 -55 -5z m5 -186 c16 -23 17 -30 7 -50
-15 -28 -29 -39 -52 -39 -43 0 -64 66 -31 102 22 25 51 19 76 -13z"/>
<path d="M1802 751 c-58 -23 -97 -62 -118 -116 -16 -43 -16 -47 1 -92 23 -61
49 -91 103 -114 55 -24 83 -24 131 1 63 31 82 64 79 129 l-3 56 -70 -1 -70 0
0 -29 c0 -27 4 -30 33 -33 25 -3 32 -7 28 -19 -3 -8 -6 -19 -6 -24 0 -17 -86
-10 -102 9 -46 52 -46 96 -1 138 30 28 84 32 103 9 17 -20 24 -19 56 8 23 20
25 26 14 44 -11 17 -99 54 -126 52 -5 0 -28 -8 -52 -18z"/>
<path d="M4258 764 c-4 -3 -2 -20 3 -37 14 -51 12 -70 -8 -62 -10 4 -34 9 -53
12 -30 4 -41 0 -68 -25 -31 -29 -32 -33 -32 -105 0 -75 0 -76 37 -106 42 -34
68 -38 100 -16 19 13 25 13 52 -3 22 -12 35 -14 47 -7 14 9 17 35 18 183 l1
172 -46 0 c-25 0 -48 -3 -51 -6z m4 -185 c16 -22 17 -29 7 -52 -21 -45 -81
-48 -95 -4 -10 28 -6 48 14 70 21 24 50 18 74 -14z"/>
<path d="M7170 754 c-165 -58 -175 -255 -17 -326 51 -23 84 -23 141 2 51 23
57 41 25 79 -19 24 -20 24 -53 6 -43 -24 -78 -14 -112 30 -24 32 -25 38 -14
65 13 32 58 70 83 70 8 0 20 -7 27 -15 17 -21 46 -19 71 6 28 28 21 51 -22 71
-57 27 -81 29 -129 12z"/>
<path d="M136 744 c-3 -8 3 -32 13 -52 11 -20 27 -55 36 -77 10 -22 24 -53 31
-68 8 -16 14 -35 14 -43 0 -32 40 -94 61 -94 29 0 59 18 59 35 0 8 7 31 16 52
9 21 22 52 29 68 7 17 23 55 35 85 12 30 27 60 32 67 14 18 2 30 -34 35 -37 6
-78 -27 -78 -61 0 -35 -34 -131 -46 -131 -12 0 -44 74 -44 103 0 10 -9 36 -20
57 -18 36 -24 40 -59 40 -26 0 -41 -5 -45 -16z"/>
<path d="M4584 749 c-8 -14 -11 -318 -3 -331 3 -5 24 -8 45 -6 l39 3 -3 88
c-4 114 8 115 73 7 55 -91 67 -102 106 -98 l34 3 2 167 2 168 -24 6 c-53 13
-60 5 -62 -76 -2 -102 -1 -100 -15 -100 -7 0 -28 27 -47 59 -19 33 -44 71 -55
84 -23 27 -81 43 -92 26z"/>
<path d="M6020 710 c0 -18 -6 -33 -15 -36 -20 -8 -20 -70 0 -77 11 -5 15 -28
17 -94 l3 -88 40 0 40 0 1 84 c1 61 6 88 16 95 27 20 31 54 9 73 -12 10 -21
30 -21 45 0 26 -2 28 -45 28 -43 0 -45 -1 -45 -30z"/>
<path d="M504 667 c-2 -7 -3 -67 -2 -133 l3 -119 40 0 40 0 0 130 0 130 -38 2
c-23 1 -40 -3 -43 -10z"/>
<path d="M997 654 c-73 -68 -60 -181 25 -225 46 -23 77 -24 123 -2 40 19 43
32 16 57 -14 13 -28 16 -54 11 -37 -7 -82 9 -72 26 4 5 37 9 75 9 38 0 72 5
75 11 14 21 -6 78 -37 108 -43 42 -109 44 -151 5z m98 -50 c22 -22 14 -38 -19
-42 -40 -5 -54 12 -31 38 22 24 29 25 50 4z"/>
<path d="M1280 659 c-61 -51 -78 -127 -42 -182 21 -31 85 -67 120 -67 32 0 83
27 109 59 29 34 32 125 5 156 -50 58 -143 74 -192 34z m123 -91 c13 -49 -31
-91 -71 -69 -60 32 -17 126 45 98 12 -5 24 -18 26 -29z"/>
<path d="M2085 655 c-28 -23 -29 -28 -30 -106 0 -78 1 -82 30 -105 37 -30 73
-40 88 -25 14 14 49 14 82 -1 41 -19 48 -2 47 124 0 62 -1 119 -1 126 -1 15
-53 16 -68 1 -8 -8 -17 -8 -31 0 -34 18 -85 12 -117 -14z m115 -55 c26 -14 34
-57 15 -86 -19 -29 -48 -31 -75 -4 -26 26 -25 54 2 80 25 23 32 24 58 10z"/>
<path d="M2377 673 c-4 -3 -7 -62 -7 -129 l0 -124 27 -6 c47 -12 58 5 55 86
-3 57 0 75 14 91 42 47 74 6 63 -83 -9 -75 1 -98 41 -98 40 0 50 23 41 98 -11
89 21 130 63 83 14 -16 17 -34 14 -91 -3 -81 8 -98 56 -86 l28 7 -7 102 c-8
124 -22 151 -82 155 -27 2 -44 -2 -53 -13 -16 -19 -56 -20 -64 0 -7 18 -67 20
-84 3 -10 -10 -17 -10 -32 0 -21 13 -63 16 -73 5z"/>
<path d="M2861 651 c-75 -70 -64 -176 24 -221 50 -25 76 -25 126 0 l39 21 -17
24 c-15 21 -24 24 -55 19 -45 -7 -78 2 -78 21 0 11 19 15 73 17 l72 3 3 37 c3
30 -3 42 -33 72 -30 30 -43 36 -79 36 -35 0 -51 -6 -75 -29z m99 -51 c15 -27
5 -40 -31 -40 -22 0 -29 5 -29 20 0 17 23 39 42 40 4 0 12 -9 18 -20z"/>
<path d="M3109 651 c-16 -16 -29 -38 -29 -49 0 -29 42 -72 71 -72 29 0 49 -17
49 -42 0 -22 -14 -23 -51 -1 -27 16 -29 16 -49 -2 -28 -26 -25 -39 15 -58 68
-32 145 -11 174 48 12 25 12 32 0 54 -8 14 -25 28 -38 29 -31 5 -84 35 -83 47
2 17 48 17 61 1 12 -14 17 -13 44 6 l30 21 -29 24 c-22 17 -42 23 -82 23 -46
0 -58 -4 -83 -29z"/>
<path d="M3507 643 c-34 -33 -37 -41 -37 -93 0 -39 5 -62 15 -70 8 -7 15 -19
15 -26 0 -8 6 -14 14 -14 7 0 19 -7 26 -15 16 -20 49 -19 72 2 15 13 22 14 41
4 12 -6 36 -13 52 -14 l30 -2 0 130 0 130 -33 3 c-18 2 -40 -2 -48 -9 -11 -9
-18 -9 -26 -1 -7 7 -28 12 -48 12 -29 0 -45 -8 -73 -37z m125 -45 c16 -13 21
-33 19 -74 -1 -26 -42 -40 -71 -24 -27 14 -28 84 -2 99 23 14 35 13 54 -1z"/>
<path d="M3802 548 l3 -133 40 0 40 0 3 87 c2 76 5 89 23 99 15 8 24 7 36 -3
13 -10 14 -26 9 -89 -7 -86 2 -103 51 -97 l28 3 3 109 c2 101 1 111 -19 132
-24 26 -86 33 -106 13 -8 -8 -17 -8 -31 0 -11 6 -35 11 -52 11 l-31 0 3 -132z"/>
<path d="M4971 651 c-32 -30 -37 -51 -32 -136 1 -32 9 -47 38 -72 40 -37 58
-40 98 -19 24 13 31 13 51 -1 26 -17 64 -9 64 13 7 236 0 260 -62 236 -21 -8
-36 -8 -42 -2 -21 21 -83 11 -115 -19z m126 -63 c28 -27 29 -48 3 -76 -26 -28
-55 -28 -74 0 -21 30 -20 54 4 78 26 26 38 25 67 -2z"/>
<path d="M5264 667 c-2 -7 -3 -67 -2 -132 3 -131 6 -135 65 -120 25 6 26 8 21
70 -6 73 10 110 43 100 16 -5 23 2 38 36 11 24 17 47 15 51 -8 13 -53 9 -78
-7 -21 -14 -24 -14 -36 0 -15 18 -59 20 -66 2z"/>
<path d="M5487 673 c-4 -3 -7 -64 -7 -135 l0 -129 43 3 42 3 3 75 c3 81 12
100 48 100 26 0 44 26 44 64 0 22 -5 26 -29 26 -16 0 -31 -6 -34 -12 -3 -10
-11 -10 -39 0 -38 13 -61 15 -71 5z"/>
<path d="M5723 658 c-13 -13 -29 -45 -37 -71 -21 -68 -5 -121 46 -154 36 -24
41 -25 78 -13 32 10 45 10 70 0 54 -22 60 -6 53 138 l-6 124 -31 -7 c-36 -7
-46 -7 -106 1 -39 5 -48 2 -67 -18z m117 -68 c25 -25 25 -51 1 -81 -16 -20
-23 -22 -47 -14 -17 6 -33 21 -38 38 -8 22 -6 31 14 52 28 30 44 31 70 5z"/>
<path d="M6207 673 c-5 -7 -11 -202 -8 -246 1 -15 8 -18 44 -15 l42 3 -3 125
c-2 69 -5 126 -5 126 -9 8 -66 13 -70 7z"/>
<path d="M6325 670 c-3 -5 0 -22 8 -37 25 -49 66 -149 81 -195 5 -18 47 -34
68 -25 7 3 21 27 31 53 19 52 32 81 66 154 11 24 17 48 12 53 -5 5 -25 7 -45
5 -36 -3 -38 -5 -59 -67 -12 -35 -26 -63 -32 -63 -5 1 -14 25 -20 54 -6 29
-14 59 -18 66 -10 14 -83 16 -92 2z"/>
<path d="M6657 643 c-35 -34 -37 -40 -37 -97 1 -67 13 -89 69 -118 41 -22 74
-23 123 -1 43 19 47 32 18 58 -14 13 -28 16 -54 11 -36 -7 -76 6 -76 24 0 6
35 10 80 10 l80 0 0 38 c0 31 -7 46 -37 75 -31 32 -43 37 -83 37 -40 0 -52 -5
-83 -37z m111 -61 c-2 -11 -13 -17 -32 -17 -35 0 -43 16 -21 39 20 20 58 4 53
-22z"/>
<path d="M7401 671 c-10 -7 -13 -37 -13 -125 1 -64 4 -120 7 -126 9 -14 62
-12 71 2 13 20 4 242 -9 250 -16 10 -39 10 -56 -1z"/>
<path d="M7548 673 c-2 -5 -4 -62 -4 -127 1 -131 8 -145 60 -132 27 7 27 7 25
86 -2 63 0 84 13 96 12 13 20 14 36 5 19 -10 22 -22 24 -99 l3 -87 31 -3 c47
-5 53 11 47 121 -7 116 -23 147 -78 147 -19 0 -46 -5 -60 -12 -19 -9 -28 -9
-37 0 -13 13 -55 16 -60 5z"/>
<path d="M7880 657 c-52 -44 -63 -112 -31 -175 20 -39 73 -72 116 -72 31 0 95
30 95 45 0 27 -37 46 -76 40 -27 -5 -45 -2 -59 8 -30 23 -14 29 65 28 81 -1
87 5 71 66 -21 77 -123 111 -181 60z m94 -56 c24 -26 13 -41 -30 -41 -37 0
-43 13 -17 42 20 23 26 23 47 -1z"/>
<path d="M8122 546 l3 -131 28 -3 c49 -6 58 12 51 92 -7 82 7 113 44 102 19
-7 22 -15 24 -99 l3 -92 40 0 40 0 2 75 c1 41 2 82 2 91 1 20 41 33 56 18 5
-6 10 -49 10 -97 l0 -87 40 0 40 0 3 102 c2 93 1 106 -20 133 -18 25 -29 30
-64 30 -25 0 -47 -6 -54 -15 -16 -19 -44 -19 -59 -1 -8 10 -37 13 -101 13
l-91 0 3 -131z"/>
<path d="M8598 655 c-49 -45 -49 -167 0 -212 32 -29 68 -39 87 -23 9 8 27 10
47 6 18 -4 44 -8 58 -9 l25 -2 0 130 0 130 -28 3 c-16 2 -34 -2 -42 -8 -10 -8
-19 -8 -34 -1 -35 19 -84 13 -113 -14z m115 -57 c27 -21 31 -61 9 -88 -17 -21
-24 -23 -48 -15 -17 6 -33 21 -38 38 -8 22 -6 31 14 52 26 28 39 31 63 13z"/>
</g>
</svg>
